<svg width="134" height="18" viewBox="0 0 134 18" fill="none" xmlns="http://www.w3.org/2000/svg">
<path d="M103.28 0.700195C105.947 0.700265 108.136 1.44984 109.66 2.87402C111.187 4.30097 112.013 6.37245 112.013 8.94141C112.013 11.5107 111.182 13.5812 109.652 15.0078C108.126 16.4318 105.937 17.1816 103.28 17.1816L87.2637 17.2461L86.9619 17.248V0.765625L87.2607 0.764648L103.278 0.700195H103.28ZM17.9531 0.764648V3.76562H11.1133V17.2461H7.51855V3.76562H0.700195V0.764648H17.9531ZM30.3447 0.764648C32.4393 0.764674 34.1025 1.19543 35.248 2.07617C36.4066 2.96704 36.995 4.28664 36.9951 5.96094C36.9951 7.04456 36.7098 7.95934 36.165 8.66211C35.7991 9.13405 35.3232 9.49659 34.7607 9.75293C35.3217 9.99797 35.796 10.3488 36.1611 10.7988C36.7066 11.4714 36.9951 12.3399 36.9951 13.335V17.2461H33.3789V13.4111C33.3789 12.5818 33.0798 12.0797 32.582 11.7666C32.0575 11.4368 31.2726 11.291 30.2598 11.291H23.7842V17.2461H20.1885V0.764648H30.3447ZM117.985 0.708984L118.075 0.833008L123.546 8.38184L129.017 0.833008L129.106 0.708984H133.364L133.005 1.18848L125.333 11.4326V17.1914H121.76V11.4326L117.943 6.35059L114.066 1.18945L113.706 0.708984H117.985ZM69.8867 0.700195L69.9766 0.804688L79.9629 12.46V0.700195H83.5576V17.1826H80.125L80.0352 17.0771L70.0488 5.42285V17.1826H66.4531V0.700195H69.8867ZM96.7803 3.7334L90.5566 3.76367V14.2432L103.3 14.1807H103.301C106.122 14.1807 108.333 11.94 108.333 8.94141C108.333 5.95052 106.128 3.78118 103.293 3.70117L96.7803 3.7334ZM23.7842 8.28906H30.2598C31.2732 8.28905 32.032 8.17244 32.5361 7.83789C33.0098 7.52354 33.3154 6.97526 33.3154 5.94238C33.3154 5.10028 33.0439 4.58815 32.5557 4.2666C32.0396 3.92676 31.2325 3.76564 30.0898 3.76562H23.7842V8.28906ZM63.0488 3.81934H62.748L44.0195 3.76562V7.51367L62.0273 7.56738L62.3271 7.56836V10.5508L62.0264 10.5498L44.0195 10.4961V14.2451L62.75 14.2988L63.0488 14.2998V17.3008L62.748 17.2998L40.7236 17.2461H40.4248V0.763672H40.7256L62.75 0.817383L63.0488 0.818359V3.81934Z" fill="white" stroke="white" stroke-width="0.6"/>
</svg>
