<svg width="135" height="19" viewBox="0 0 135 19" fill="none" xmlns="http://www.w3.org/2000/svg">
<path d="M101.673 0.700195C104.503 0.700283 106.824 1.49557 108.439 3.00488C110.057 4.5168 110.932 6.7122 110.932 9.4375C110.932 12.1634 110.051 14.3585 108.431 15.8701C106.813 17.3791 104.492 18.1737 101.673 18.1738L101.674 18.1748L84.6543 18.2432L84.3535 18.2441V0.769531L84.6523 0.768555L101.671 0.700195H101.673ZM18.9941 0.768555V3.91992H11.7266V18.2432H7.94434V3.91992H0.700195V0.768555H18.9941ZM32.1787 0.768555C34.4023 0.768573 36.1643 1.22672 37.377 2.15918C38.6026 3.10166 39.2266 4.49718 39.2266 6.27148C39.2265 7.41944 38.9244 8.38712 38.3486 9.12988C37.9534 9.63968 37.4357 10.0278 36.8232 10.2998C37.4345 10.5597 37.9501 10.9374 38.3447 11.4238C38.9211 12.1346 39.2266 13.053 39.2266 14.1064V18.2432H35.4219V14.1865C35.4219 13.2999 35.1015 12.7604 34.5664 12.4238C34.0045 12.0704 33.1654 11.915 32.0879 11.915H25.1895V18.2432H21.4072V0.768555H32.1787ZM117.287 0.708984L117.377 0.833008L123.205 8.875L129.033 0.833008L129.123 0.708984H133.6L133.24 1.18945L125.085 12.0781V18.1846H121.325V12.0771L117.267 6.67383L113.148 1.18945L112.787 0.708984H117.287ZM66.1836 0.700195L66.2734 0.804688L76.917 13.2266V0.700195H80.6982V18.1748H77.0781L76.9883 18.0703L66.3447 5.64746V18.1748H62.5635V0.700195H66.1836ZM94.7666 3.88574L88.1357 3.91797V15.0898L101.693 15.0234H101.695C104.704 15.0232 107.06 12.6333 107.06 9.4375C107.06 6.24934 104.709 3.93672 101.687 3.85156L94.7666 3.88574ZM25.1895 8.76367H32.0879C33.1651 8.76367 33.9769 8.64 34.5176 8.28125C35.0278 7.94268 35.3545 7.35243 35.3545 6.25098C35.3544 5.35172 35.0632 4.80097 34.5381 4.45508C33.985 4.09094 33.123 3.91996 31.9082 3.91992H25.1895V8.76367ZM58.9082 3.97754L58.6064 3.97656L46.6895 3.9209V7.94141L57.8428 7.99707L58.1406 7.99805V11.1299L57.8398 11.1279L46.6895 11.0723V15.0928L58.6094 15.1484L58.9082 15.1504V18.3008L58.6074 18.2998L43.2061 18.2432L42.9072 18.2422V0.766602L43.208 0.768555L58.6094 0.825195L58.9082 0.826172V3.97754Z" fill="#333333" stroke="#333333" stroke-width="0.6"/>
</svg>
